inDegrees=no
nColumns=32
nRows=18
DataType=double
version=3
OpenSimVersion=4.5
endheader
time	pelvis_tilt	pelvis_list	pelvis_rotation	pelvis_tz	pelvis_ty	pelvis_tx	hip_flexion_r	hip_adduction_r	hip_rotation_r	knee_angle_r	ankle_angle_r	subtalar_angle_r	mtp_angle_r	hip_flexion_l	hip_adduction_l	hip_rotation_l	knee_angle_l	ankle_angle_l	subtalar_angle_l	mtp_angle_l	lumbar_extension	lumbar_bending	lumbar_rotation	arm_flex_r	arm_add_r	arm_rot_r	elbow_flex_r	arm_flex_l	arm_add_l	arm_rot_l	elbow_flex_l
0	0.007295310994804195	-0.04771841689644722	-0.01781357925695756	0	0.96645415	-0	-0.2703572734613568	0.09129623149303054	-0.3049829584046433	-0.1956102776722143	0.3965559603707308	0.2169210585076719	0	0.4575961006693972	-0.04427825769297262	-0.3692266681731707	-0.1358821169057024	0.0070888558189048	0.143119577038439	0	-0.1901005338013255	0.05472137628015197	0.1576498053916445	-0.005095535875087249	-0.2114925365005844	-0.1672588868052989	0.7968959738050994	-0.1311804336004165	-0.1079651587354277	-0.03425658882172716	0.5279864155280881
0.01000000000000001	0.005568129065598634	-0.04321196792149609	-0.02357831889856673	0.0002330500000000124	0.9655575199999999	0.01342728999999998	-0.2722942248553885	0.08014000383661038	-0.3018004070622994	-0.2162358092566161	0.3864273735021728	0.2258633400221945	0	0.461740666499866	-0.04344758027825776	-0.3644824773739525	-0.1681196989003458	0.000162441109608691	0.1369438806257703	0	-0.1856088547948249	0.04645872248569743	0.1625513896337417	-0.008078868878890279	-0.2092978481471204	-0.1686445754314895	0.782135951562852	-0.1296387902062494	-0.1093090111213163	-0.0362623707654698	0.5299509816960778
0.02000000000000002	0.002862849075003859	-0.03775113582498366	-0.0322377178925212	0.0006274800000000136	0.9650559	0.02681156	-0.2707393471531023	0.0664000853523833	-0.2956557598824907	-0.2406157456475863	0.3731187476927291	0.2347658276807058	0	0.4665201808432824	-0.04289850894582537	-0.3658219795266805	-0.1926503942141094	-0.02744199980106728	0.1195294077190499	0	-0.1808033017097651	0.03686407808654968	0.1693530070183349	-0.00984548678443581	-0.2067376951786718	-0.1699226341405656	0.7637337542463941	-0.127330323664315	-0.1099349123710202	-0.03997805963137292	0.5306466207176379
0.03000000000000003	-0.008739503538640158	-0.02112011494980586	-0.03938866471622264	0.000358360000000002	0.96417502	0.0399654	-0.2516776745607845	0.03880503920000495	-0.2929347111189531	-0.2798374970418035	0.367732889386542	0.2505786770336522	0	0.4744270433355984	-0.02590051872252059	-0.3460069453365832	-0.1995267924994323	-0.04000407568373607	0.06741895079929934	0	-0.1640821762072968	0.01527306352120042	0.1713027729688006	-0.00542455696809281	-0.1993786454618645	-0.1741864829279657	0.7271632531064005	-0.1272808610333135	-0.1121707004358418	-0.05187395555586023	0.5318069293924648
0.04000000000000004	-0.005431129331469498	-0.01412413065991649	-0.04174777453977057	-1.56400000000112e-05	0.9650382	0.05308323999999999	-0.2519493790411546	0.02348753034580372	-0.2927795195834584	-0.3093659747827111	0.3408607713512433	0.2549372722412273	0	0.4744186540614829	-0.02193202991004038	-0.332888672291212	-0.2281918322974334	-0.03931060540830456	0.05433918198615514	0	-0.167918454932675	0.004642824170657475	0.171634158284811	-0.008636685532605628	-0.1975782407745272	-0.1755566536572438	0.7173730667302483	-0.1225846179193061	-0.1133526838310505	-0.05523087576245388	0.5335356169300414
0.05000000000000004	-0.008923811790626981	0.004618296078040417	-0.04481772911979291	-0.000817750000000006	0.96570849	0.06649152	-0.2390562429973152	-0.006962077894566734	-0.2957296410659911	-0.3509896327600925	0.3174865369594376	0.2698417063419103	0	0.4764150681249983	-0.002857474518914916	-0.3111130537272805	-0.2482083918022768	-0.05133728967468519	0.005779681379924123	0	-0.1616101555592897	-0.01853470515673014	0.1681858470535293	-0.002224343242784583	-0.1898950348954714	-0.182646586693363	0.6807463239259055	-0.1183018897308542	-0.1141335772996485	-0.07233396953878084	0.5311448020888064
0.05999999999999983	-0.00450174666715096	0.01045783954723231	-0.04458440518239198	-0.001061499999999993	0.96730317	0.08023407999999999	-0.2377771824692484	-0.01995676609546641	-0.29221592117753	-0.383924869806115	0.2774617440429475	0.2693439319815233	0	0.4739076993236507	0.0007092110508893918	-0.2979219007938009	-0.2811882593607337	-0.05015034779907161	-0.00678449936982257	0	-0.166038532695551	-0.02816385070093254	0.1656310066927907	-0.007419254151223109	-0.1867428803819131	-0.183611167688153	0.6710379973313961	-0.1133812471914569	-0.1166224936074795	-0.07493405092812619	0.5324456504345905
0.06999999999999984	-0.008953281768953511	0.0189758347154853	-0.04278362964148607	-0.001859	0.96833946	0.09405999999999999	-0.2218371429451947	-0.03590692748198415	-0.2875015395547383	-0.4248365875612557	0.2327310263220232	0.2606292110327317	0	0.4770770050132352	0.01248780287275139	-0.2685678493384754	-0.3033028273231206	-0.0645279699730034	-0.06456463009034277	0	-0.158261280971482	-0.03958652293895603	0.1604205522310998	-0.006071377210612385	-0.1809324079033253	-0.1893626120842409	0.6396028960847371	-0.1105468319626193	-0.1181997631859372	-0.08648319146907843	0.5313607836166809
0.07999999999999985	-0.008550787239192227	0.03090337287530854	-0.04621576788005957	-0.002339859999999999	0.96988542	0.10756367	-0.2038557429405964	-0.05773042287075878	-0.278112015324997	-0.4750824533905646	0.1864092308502642	0.2485206849615995	0	0.472229530341273	0.0250880005860081	-0.2601131450981851	-0.3190736289018596	-0.04474825269485318	-0.07690797782049313	0	-0.1574109394556836	-0.0555791551674918	0.1608737325564338	-0.008662742076607426	-0.1765325840045608	-0.1942397355368713	0.6209744386473739	-0.1046663277987294	-0.1203990998747979	-0.09223641994072762	0.5302589117068035
0.08999999999999986	-0.01286709586515785	0.04070203319823279	-0.04847153443959214	-0.002725439999999996	0.97107295	0.12087984	-0.1769617510428483	-0.07606328401562136	-0.2669509265775442	-0.5285336832372715	0.1204060681018365	0.2288244474797039	0	0.4697726783497951	0.03588810794572574	-0.2551656140163315	-0.3319476984453515	-0.03197321592564625	-0.08518733127429659	0	-0.1510183309055832	-0.06871758886011865	0.1599444847051527	-0.01081491578028912	-0.1709266080892378	-0.1994801183809767	0.5999406771689245	-0.0991677934794945	-0.122166358141646	-0.09815661306634083	0.5298132565430724
0.09999999999999987	-0.01836647548000579	0.05340104527202662	-0.0529069764311688	-0.003067180000000003	0.97216916	0.13420236	-0.1444652258917266	-0.09856308750822679	-0.2519500082323499	-0.5881855858563748	0.0595122857037217	0.2073308575422668	0	0.4640763397577793	0.04892359164709445	-0.2579653109811555	-0.3373483087979752	-0.01865809295352913	-0.08571059512121144	0	-0.1423670641942747	-0.08499074122707631	0.1606126988445774	-0.0136710921233064	-0.16609933874496	-0.2048685390050386	0.5802869419449734	-0.09546972825024634	-0.1249377486585295	-0.103087380086196	0.5312910074475814
0.1099999999999999	-0.02361067706109596	0.06547118531844393	-0.05727781442630417	-0.003317650000000005	0.97327508	0.14739266	-0.110041755144642	-0.1200292246382605	-0.2370873768616473	-0.649732734005303	0.01047237815942441	0.1813068461286592	0	0.4562237189570225	0.06084941769932544	-0.2667186667128021	-0.3381045336083927	-0.002176267799472548	-0.08370802266343029	0	-0.1341245055972289	-0.100346617828757	0.1611693497928853	-0.0174181808587163	-0.1613903236605523	-0.2096048904833886	0.5636419806912001	-0.09109399041875815	-0.1280295074495858	-0.10706011371395	0.5322958828588121
0.1199999999999999	-0.02612133362442323	0.07331244364933427	-0.05956925535381027	-0.003687479999999993	0.97427915	0.15993393	-0.0771236352407256	-0.1359952311709254	-0.2225722047657671	-0.711863786069743	-0.03338181077653875	0.1635603072275201	0	0.4487932946985866	0.06872942638123737	-0.2736717200334056	-0.3452833269417844	0.01591488339541303	-0.08434342496198331	0	-0.1309233207707248	-0.1104169232666691	0.1590351796840368	-0.02106547149296423	-0.1580832511045932	-0.2123759891812211	0.553078509434791	-0.08619426390511677	-0.1314958721921172	-0.1091772949623926	0.5355655683677986
0.1299999999999999	-0.03796795147346721	0.08623924592108044	-0.06408629713034239	-0.003819829999999996	0.9745332	0.17205014	-0.02774166044179702	-0.1557785705308723	-0.2025442557658239	-0.7814737081947983	-0.06847249192419523	0.1276313022031629	0	0.4491831824039264	0.08035419727466628	-0.2849601860512616	-0.3451174745861527	0.0249648904710931	-0.07652721679087804	0	-0.1159047304432554	-0.125913451414912	0.1587047638984259	-0.02309630414746075	-0.1532744068521629	-0.2178077672745611	0.5374494713518805	-0.08200297473790735	-0.1341583604468615	-0.1131995414866306	0.5392202117251194
0.1399999999999999	-0.04309998254519042	0.09617659321900776	-0.06767552713566151	-0.004149719999999996	0.97533595	0.18414757	0.0129455320497148	-0.1718151098328675	-0.1846906904824258	-0.8442161403695658	-0.10633641887373	0.09082398972880387	0	0.4429039902355423	0.08985570078201797	-0.2933571787109068	-0.3478911595128708	0.04247377521837091	-0.07092002891892241	0	-0.1094260511556258	-0.1375779622336783	0.1564283679560299	-0.02597129880500596	-0.1492659601227217	-0.2230175600819326	0.5278673338076196	-0.07725831165259357	-0.137283352226738	-0.1156235947272063	0.5439939158674557
0.1499999999999999	-0.04920433903191926	0.1045131552270888	-0.0681172449235401	-0.004404589999999986	0.97609749	0.19593375	0.05401223102817538	-0.1848198567153123	-0.1701601165540284	-0.9022168142104936	-0.142353294768207	0.05938548107584609	0	0.4377498781436984	0.09846129501932857	-0.2982943151353341	-0.3504467624079596	0.05666889389747529	-0.06618697471659532	0	-0.1025568450230844	-0.1475456072304551	0.1507672879819641	-0.02785720490347047	-0.1445658926432573	-0.2276382827992062	0.5197110630670618	-0.07189499462276182	-0.1414830496921518	-0.1161640902098261	0.5487701198448799
0.1599999999999999	-0.054560212517417	0.1104651690171134	-0.0668231023045624	-0.005002630000000008	0.97709417	0.20767065	0.09314132847745783	-0.1935820005288085	-0.1559942111959439	-0.9541203825932395	-0.1664579283334882	0.02654354147765367	0	0.4308281026940871	0.1058547587892608	-0.3007248993979708	-0.3513144744876713	0.07208316101288027	-0.0615350750083604	0	-0.09707650733209788	-0.1539080784822296	0.1435151592295291	-0.03073957252990781	-0.1409880821702678	-0.2321276975900682	0.5138578764475583	-0.06622193383604569	-0.1443678850396185	-0.1167923371820447	0.5523526969865894
0.1699999999999999	-0.05478613685949557	0.1152457465561012	-0.06354865804290952	-0.005658909999999989	0.97855998	0.21934503	0.1239929705184984	-0.2012428864392581	-0.1466637368653183	-1.000547116858939	-0.1641184640459067	0.001444183336071145	0	0.4179664159125722	0.1133717199626691	-0.3000712496820882	-0.352095210178505	0.08914921122303121	-0.05772678211393911	0	-0.09828212021645052	-0.1593973471975316	0.1328774755261276	-0.03273174457067632	-0.1377457716270003	-0.2340823338818116	0.5112691459815362	-0.05846240627959649	-0.1478140908802235	-0.116653425205148	0.5542336412885235
